<?xml version="1.0" encoding="iso-8859-1"?>
<!-- Generator: Adobe Illustrator 19.0.0, SVG Export Plug-In . SVG Version: 6.00 Build 0)  -->
<svg version="1.1" id="Capa_1" xmlns="http://www.w3.org/2000/svg" xmlns:xlink="http://www.w3.org/1999/xlink" x="0px" y="0px"
	 viewBox="0 0 512 512" style="enable-background:new 0 0 512 512;" xml:space="preserve">
<circle style="fill:#C69A6A;" cx="256" cy="256" r="256"/>
<g>
	<path style="fill:#5C5E70;" d="M503.557,60.05v261.381c-7.555,28.693-19.978,55.411-36.321,79.224H44.763
		c-14.733-21.462-26.269-45.286-33.938-70.781V60.05c0-17,13.782-30.793,30.783-30.793h431.167
		C489.775,29.257,503.557,43.05,503.557,60.05z"/>
	<path style="fill:#5C5E70;" d="M503.557,298.297v23.134c-7.555,28.693-19.978,55.411-36.321,79.224H44.763
		c-14.733-21.462-26.269-45.286-33.938-70.781v-31.577H503.557z"/>
</g>
<path style="fill:#E8DBC4;" d="M490.854,60.488v275.299c0,10.041-6.604,18.192-14.743,18.192H38.278
	c-8.15,0-14.744-8.15-14.744-18.192V60.488c0-10.052,6.593-18.192,14.744-18.192h437.833
	C484.251,42.296,490.854,50.436,490.854,60.488z"/>
<path style="fill:#494B5B;" d="M261.457,382.052c-6.16,0-11.152-4.993-11.152-11.152c0-1.761,0.41-3.424,1.136-4.905
	c-3.7,1.815-6.247,5.617-6.247,10.016c0,6.16,4.993,11.152,11.152,11.152c4.399,0,8.201-2.547,10.016-6.247
	C264.882,381.643,263.218,382.052,261.457,382.052z"/>
<rect x="160.413" y="400.656" style="fill:#5C5E70;" width="193.557" height="75.797"/>
<rect x="160.413" y="400.656" style="fill:#494B5B;" width="193.557" height="20.27"/>
<path style="fill:#797B89;" d="M398.764,468.522c-5.413,3.647-10.982,7.095-16.687,10.324H129.923
	c-5.13-2.905-10.156-5.987-15.057-9.226c10.136-15.287,27.376-24.785,46.174-24.785h192.303c11.16,0,21.786,3.354,30.689,9.279
	C389.747,457.916,394.762,462.796,398.764,468.522z"/>
<path style="fill:#D6C8B0;" d="M490.854,60.488v119.85c-4.692,2.184-9.916,3.406-15.423,3.406
	c-20.198,0-36.571-16.374-36.571-36.571c0,10.094-4.096,19.247-10.71,25.861c-6.614,6.614-15.768,10.71-25.861,10.71
	c-20.198,0-36.571-16.374-36.571-36.571c0,10.094-4.096,19.247-10.71,25.861c-6.614,6.614-15.768,10.71-25.861,10.71
	c-20.198,0-36.571-16.374-36.571-36.571c0,10.094-4.096,19.247-10.71,25.861c-6.614,6.614-15.768,10.71-25.861,10.71
	c-20.198,0-36.571-16.374-36.571-36.571c0,10.094-4.096,19.247-10.71,25.861c-6.614,6.614-15.768,10.71-25.861,10.71
	c-20.198,0-36.571-16.374-36.571-36.571c0,10.094-4.096,19.247-10.71,25.861c-6.614,6.614-15.768,10.71-25.861,10.71
	c-20.198,0-36.571-16.374-36.571-36.571c0,10.094-4.096,19.247-10.71,25.861c-6.614,6.614-15.768,10.71-25.861,10.71
	c-4.598,0-8.997-0.846-13.04-2.393V60.488c0-10.052,6.593-18.192,14.744-18.192h437.833
	C484.251,42.296,490.854,50.436,490.854,60.488z"/>
<path style="fill:#EF4152;" d="M73.143,0H42.604C19.075,0,0,19.075,0,42.604v72.175c0,20.198,16.374,36.571,36.571,36.571l0,0
	c20.198,0,36.571-16.374,36.571-36.571V0z"/>
<path style="fill:#FFD15C;" d="M146.286,0H73.143v114.779c0,20.198,16.374,36.571,36.571,36.571l0,0
	c20.198,0,36.571-16.374,36.571-36.571V0z"/>
<path style="fill:#EF4152;" d="M219.429,0h-73.143v114.779c0,20.198,16.374,36.571,36.571,36.571l0,0
	c20.198,0,36.571-16.374,36.571-36.571V0z"/>
<path style="fill:#FFD15C;" d="M292.571,0h-73.143v114.779c0,20.198,16.374,36.571,36.571,36.571l0,0
	c20.198,0,36.571-16.374,36.571-36.571V0z"/>
<path style="fill:#EF4152;" d="M365.714,0h-73.143v114.779c0,20.198,16.374,36.571,36.571,36.571l0,0
	c20.198,0,36.571-16.374,36.571-36.571V0z"/>
<path style="fill:#FFD15C;" d="M438.857,0h-73.143v114.779c0,20.198,16.374,36.571,36.571,36.571l0,0
	c20.198,0,36.571-16.374,36.571-36.571V0z"/>
<path style="fill:#EF4152;" d="M469.396,0h-30.539v114.779c0,20.198,16.374,36.571,36.571,36.571l0,0
	c20.198,0,36.571-16.374,36.571-36.571V42.604C512,19.075,492.925,0,469.396,0z"/>
<g>
</g>
<g>
</g>
<g>
</g>
<g>
</g>
<g>
</g>
<g>
</g>
<g>
</g>
<g>
</g>
<g>
</g>
<g>
</g>
<g>
</g>
<g>
</g>
<g>
</g>
<g>
</g>
<g>
</g>
</svg>
